<?xml version="1.0" encoding="UTF-8"?>
<svg version="1.1" xmlns="http://www.w3.org/2000/svg" width="2000" height="1500">
<path d="M0 0 C660 0 1320 0 2000 0 C2000 495 2000 990 2000 1500 C1340 1500 680 1500 0 1500 C0 1005 0 510 0 0 Z " fill="#1F2022" transform="translate(0,0)"/>
<path d="M0 0 C148.5 0 297 0 450 0 C450 139.59 450 279.18 450 423 C301.5 423 153 423 0 423 C0 283.41 0 143.82 0 0 Z " fill="#1F2022" transform="translate(775,252)"/>
<path d="M0 0 C148.5 0 297 0 450 0 C450 139.59 450 279.18 450 423 C301.5 423 153 423 0 423 C0 283.41 0 143.82 0 0 Z M24 23 C24 117.38 24 211.76 24 309 C48.481875 309.12375 72.96375 309.2475 98.1875 309.375 C105.87957764 309.42962402 113.57165527 309.48424805 121.49682617 309.54052734 C128.47262536 309.56061041 128.47262536 309.56061041 135.44844055 309.57266235 C138.52362257 309.57818798 141.59816494 309.60040803 144.673172 309.63345337 C176.57982709 309.96097125 203.23809761 305.2457136 226.86132812 282.36328125 C232.24126647 277.06364049 237.11493345 271.53172263 241.83203125 265.62890625 C254.31543987 250.4913675 269.0500852 241.6721889 288.61328125 239.7421875 C303.25768793 239.09132498 317.32602748 244.78455086 328.1875 254.375 C329.80346042 255.90430008 331.40825076 257.44551579 333 259 C333.68835937 259.6496875 334.37671875 260.299375 335.0859375 260.96875 C338.79216225 264.54313276 342.09595215 268.29181518 345.3125 272.3125 C361.18910575 291.89454866 380.82834212 304.80472369 406 309 C412.6 309 419.2 309 426 309 C426 214.62 426 120.24 426 23 C293.34 23 160.68 23 24 23 Z " fill="#FCFCFC" transform="translate(775,252)"/>
<path d="M0 0 C4.6407645 2.90241793 8.4640821 6.62189444 12.3359375 10.4609375 C12.95210937 11.03972656 13.56828125 11.61851562 14.203125 12.21484375 C17.63401827 15.49553662 20.6203437 19.00525745 23.5859375 22.7109375 C42.8823803 46.49795214 67.3132933 59.91535354 97.3359375 65.4609375 C109.2159375 65.9559375 109.2159375 65.9559375 121.3359375 66.4609375 C121.3359375 88.9009375 121.3359375 111.3409375 121.3359375 134.4609375 C-11.9840625 134.4609375 -145.3040625 134.4609375 -282.6640625 134.4609375 C-282.6640625 112.0209375 -282.6640625 89.5809375 -282.6640625 66.4609375 C-266.37546875 66.40486328 -266.37546875 66.40486328 -249.7578125 66.34765625 C-242.8580604 66.31736272 -235.95832475 66.28632575 -229.05859375 66.25195312 C-218.11899345 66.19759212 -207.17943877 66.146174 -196.23974609 66.11450195 C-188.27026513 66.0914151 -180.30090527 66.05789942 -172.33152056 66.01223594 C-168.11790244 65.98844673 -163.90440317 65.96962486 -159.6907196 65.96332359 C-155.71140959 65.9572072 -151.73240312 65.93697634 -147.75320625 65.90666199 C-146.30542179 65.89798532 -144.85759748 65.89413717 -143.40978813 65.89592934 C-111.9619668 65.92252707 -84.23971122 54.15060347 -61.9765625 32.0859375 C-56.88016378 26.94346386 -52.20577585 21.63290067 -47.70703125 15.9609375 C-35.78303966 1.36943727 -19.09150036 -8.94319452 0 0 Z " fill="#212224" transform="translate(1080.6640625,517.5390625)"/>
<path d="M0 0 C3.09380773 2.33662343 5.64614777 4.7695139 7.75 8.0625 C7.75 8.7225 7.75 9.3825 7.75 10.0625 C9.73 10.0625 11.71 10.0625 13.75 10.0625 C13.770625 9.03125 13.79125 8 13.8125 6.9375 C15.05790584 1.78982252 17.40201044 -0.1256803 21.75 -2.9375 C26.88316992 -5.34026039 29.61013748 -4.9375 35.75 -4.9375 C35.75 1.6625 35.75 8.2625 35.75 15.0625 C32.52734375 15.22526042 29.3046875 15.38802083 26.08203125 15.55078125 C22.52617906 16.09687344 20.57450841 16.85948449 17.75 19.0625 C16.57169036 20.92193096 16.57169036 20.92193096 16 23 C15.77828125 23.66902344 15.5565625 24.33804688 15.328125 25.02734375 C15.04195312 26.03474609 15.04195312 26.03474609 14.75 27.0625 C14.48998451 27.96060898 14.48998451 27.96060898 14.22471619 28.87686157 C13.69287447 31.32551135 13.60372798 33.56213962 13.57641602 36.06787109 C13.56292618 37.06346039 13.54943634 38.05904968 13.53553772 39.08480835 C13.52509933 40.15768097 13.51466095 41.23055359 13.50390625 42.3359375 C13.47093477 44.62890959 13.43772375 46.92187825 13.40429688 49.21484375 C13.35716529 52.81296141 13.31279087 56.41106863 13.27319336 60.00927734 C12.79394576 101.54598222 12.79394576 101.54598222 2.5859375 112.53125 C-9.22040011 122.37823796 -24.36086792 122.24795932 -38.875 122.4921875 C-45.79865005 122.69433787 -51.73382376 123.72067593 -58.25 126.0625 C-59.24 126.3925 -60.23 126.7225 -61.25 127.0625 C-61.35824843 128.6651782 -61.43570645 130.26995748 -61.5 131.875 C-61.54640625 132.76832031 -61.5928125 133.66164063 -61.640625 134.58203125 C-61.46954016 137.12505059 -61.46954016 137.12505059 -59.734375 138.76171875 C-52.40838658 142.59749571 -44.40315453 142.49800044 -36.31015015 142.89593506 C4.07341512 144.9358414 4.07341512 144.9358414 16.4375 157.875 C20.97125582 164.124231 22.31424432 169.29657887 22.25 176.875 C22.24355469 177.66817627 22.23710938 178.46135254 22.23046875 179.27856445 C21.96590656 187.78197615 19.39408095 193.69742909 13.4375 199.8125 C9.67475157 202.81559922 5.52171159 204.64638442 1.0625 206.375 C0.44012451 206.61766602 -0.18225098 206.86033203 -0.82348633 207.11035156 C-22.72309433 214.91134557 -52.58810799 214.17070303 -73.9375 204.8125 C-79.87316067 201.47048726 -84.02235259 196.94480262 -86.6875 190.6875 C-87.72057203 184.02992469 -88.62144532 177.52591799 -84.7109375 171.66015625 C-80.00410194 166.51284142 -74.02680156 163.39128462 -67.25 162.0625 C-65.93 162.0625 -64.61 162.0625 -63.25 162.0625 C-63.25 160.4125 -63.25 158.7625 -63.25 157.0625 C-64.095625 156.98 -64.94125 156.8975 -65.8125 156.8125 C-72.1954015 155.41986695 -76.66278659 152.61615159 -80.25 147.0625 C-81.15224936 141.39388508 -81.93660324 133.29280091 -78.375 128.375 C-74.12305622 125.2285616 -68.69961358 122.0625 -63.25 122.0625 C-63.43504866 120.13842761 -63.43504866 120.13842761 -64.25 118.0625 C-66.12763019 116.63356131 -66.12763019 116.63356131 -68.4375 115.4375 C-77.30020884 109.75411211 -80.18018184 100.8907579 -82.43188477 90.96728516 C-84.28566309 81.27834707 -83.69588525 71.25347514 -83.5625 61.4375 C-83.55097519 59.2682378 -83.54120001 57.09896557 -83.53320312 54.9296875 C-83.30421697 14.84105433 -83.30421697 14.84105433 -72.6875 3.375 C-55.64240199 -12.40749815 -18.9319978 -11.76032608 0 0 Z " fill="#FCFCFC" transform="translate(956.25,804.9375)"/>
<path d="M0 0 C0.88623047 -0.01611328 1.77246094 -0.03222656 2.68554688 -0.04882812 C12.12372449 -0.05571228 21.31468871 2.15273672 28.6875 8.3125 C34.6875 14.86378205 34.6875 14.86378205 34.6875 19.3125 C36.6675 19.3125 38.6475 19.3125 40.6875 19.3125 C41.05875 18.4771875 41.05875 18.4771875 41.4375 17.625 C45.99308478 9.19716816 54.2574157 4.00042955 63.2109375 1.01171875 C76.95337471 -1.75220963 90.88534913 -0.86825232 102.88671875 6.69921875 C107.28325621 10.06344553 109.77779358 14.16262818 111.6875 19.3125 C112.02981659 20.22431534 112.37213318 21.13613068 112.724823 22.07557678 C114.38613257 28.00864202 113.94861402 34.21823423 113.91455078 40.32592773 C113.91398602 41.74566134 113.91430449 43.16539552 113.91543579 44.58512878 C113.91600778 48.42348651 113.90427853 52.26171831 113.89028788 56.10004687 C113.87775474 60.11723355 113.87660798 64.13442337 113.87423706 68.15162659 C113.86802987 75.75168778 113.85162938 83.35169118 113.83153808 90.95172697 C113.80915536 99.60709738 113.79817969 108.26247061 113.78814721 116.91786277 C113.76726246 134.71610881 113.73169673 152.51429763 113.6875 170.3125 C106.4275 170.3125 99.1675 170.3125 91.6875 170.3125 C91.68203156 167.70492043 91.68203156 167.70492043 91.67645264 165.04466248 C91.6395228 148.66765683 91.58200889 132.29084565 91.50359726 115.91398525 C91.46381195 107.49433008 91.4314169 99.0747683 91.41650391 90.6550293 C91.40348472 83.31515682 91.37651337 75.9754899 91.33288693 68.63573319 C91.31027794 64.75044138 91.29458897 60.86540303 91.29561615 56.9800396 C91.29636311 53.3199433 91.27839865 49.66040717 91.24633217 46.00045586 C91.23380562 44.02301799 91.24089442 42.04548605 91.24864197 40.06802368 C91.16947882 33.31061924 90.9112176 28.72223975 86.6875 23.3125 C81.11790752 19.88667519 75.80336285 19.80217848 69.375 19.875 C67.97278198 19.88744751 67.97278198 19.88744751 66.54223633 19.90014648 C56.28756902 20.1520973 49.84682001 22.66796171 42.28125 29.62890625 C39.01751453 33.07662681 38.43457964 35.2155982 38.4090271 39.83634949 C38.39786362 40.98479843 38.38670013 42.13324738 38.37519836 43.3164978 C38.37303818 44.57741241 38.37087799 45.83832703 38.36865234 47.13745117 C38.35935484 48.47778428 38.34918643 49.81811159 38.33821106 51.15843201 C38.31087677 54.79862181 38.29575156 58.43877285 38.28278303 62.07903838 C38.26716744 65.88275975 38.24037224 69.68640176 38.2147522 73.49006653 C38.1679365 80.69354456 38.13120594 87.89703748 38.09807932 95.10059005 C38.05987762 103.30127807 38.01046237 111.50188645 37.96009517 119.70250738 C37.85673382 136.5724483 37.76788489 153.44243451 37.6875 170.3125 C30.4275 170.3125 23.1675 170.3125 15.6875 170.3125 C15.68203156 167.68279739 15.68203156 167.68279739 15.67645264 164.99996948 C15.6395351 148.49020775 15.58203515 131.98063915 15.50359726 115.47102165 C15.46379855 106.98295655 15.43141031 98.49498427 15.41650391 90.00683594 C15.40349167 82.60801012 15.37653807 75.20938848 15.33288693 67.81067765 C15.31026231 63.89355999 15.29458991 59.97669425 15.29561615 56.05950546 C15.29636219 52.37068644 15.27843481 48.68242449 15.24633217 44.99374962 C15.23378339 42.99822733 15.24090161 41.00261156 15.24864197 39.00706482 C15.21161945 30.33180047 15.21161945 30.33180047 10.6875 23.3125 C5.06730142 19.97285939 -0.12295563 19.80230849 -6.5625 19.875 C-7.49400879 19.88257324 -8.42551758 19.89014648 -9.38525391 19.89794922 C-19.1549885 20.13182195 -26.67616088 22.12203582 -33.97265625 28.84765625 C-37.09409381 32.26030664 -37.56632611 34.38449038 -37.5909729 38.87431335 C-37.60213638 40.03117645 -37.61329987 41.18803955 -37.62480164 42.37995911 C-37.62696182 43.65022446 -37.62912201 44.92048981 -37.63134766 46.22924805 C-37.64064509 47.5794332 -37.65081349 48.9296126 -37.66178894 50.27978516 C-37.68912397 53.9468337 -37.70424866 57.61384376 -37.71721697 61.28096747 C-37.73283223 65.11271573 -37.75962754 68.9443852 -37.7852478 72.77607727 C-37.83206407 80.03267947 -37.86879436 87.28929645 -37.90192068 94.54597265 C-37.94012197 102.80711866 -37.98953733 111.0681856 -38.03990483 119.329265 C-38.14326704 136.32362046 -38.23211567 153.31802087 -38.3125 170.3125 C-45.5725 170.3125 -52.8325 170.3125 -60.3125 170.3125 C-60.3125 114.8725 -60.3125 59.4325 -60.3125 2.3125 C-53.0525 2.3125 -45.7925 2.3125 -38.3125 2.3125 C-38.3125 7.5925 -38.3125 12.8725 -38.3125 18.3125 C-36.6625 18.3125 -35.0125 18.3125 -33.3125 18.3125 C-33.126875 17.631875 -32.94125 16.95125 -32.75 16.25 C-29.04150943 8.67178013 -22.02568194 3.97738511 -14.23828125 1.2265625 C-9.53075689 -0.06324691 -4.85159288 -0.01741419 0 0 Z " fill="#FDFDFD" transform="translate(730.3125,797.6875)"/>
<path d="M0 0 C7.59 0 15.18 0 23 0 C23.26554687 2.03800781 23.53109375 4.07601562 23.8046875 6.17578125 C24.06930383 8.18825805 24.33394084 10.20073219 24.59912109 12.21313477 C24.78043556 13.59288968 24.96080264 14.97276949 25.14013672 16.3527832 C26.35643074 25.78704692 26.35643074 25.78704692 27.9453125 35.1640625 C28.916491 40.28856874 29.6528245 45.433559 30.375 50.59765625 C33.73605993 74.45383444 37.76878429 98.05428711 42.7109375 121.63696289 C42.92166901 122.65067459 43.13240051 123.66438629 43.34951782 124.70881653 C43.74060196 126.58409765 44.13718949 128.45824484 44.54086304 130.33085632 C45.8403722 136.54554006 46.5138782 142.66831139 47 149 C50.63 149 54.26 149 58 149 C58.09796875 147.68386719 58.1959375 146.36773438 58.296875 145.01171875 C58.97549099 138.25759142 60.38026752 131.66540705 61.78106689 125.03320312 C62.26077515 122.76147265 62.73326802 120.48832785 63.20458984 118.21484375 C64.5498202 111.74937367 65.91526642 105.29094151 67.3984375 98.85546875 C70.82157315 83.96409523 73.05596074 68.98182902 75.17192078 53.86026001 C76.41440652 44.99853342 77.71422214 36.15690189 79.4375 27.375 C81.19019759 18.28508491 82.58735124 9.14858241 84 0 C91.59 0 99.18 0 107 0 C105.15823454 11.384944 103.12644358 22.69112399 100.81329346 33.98846436 C97.75945406 48.92268809 94.87559589 63.88219814 92.125 78.875 C89.04112281 95.67124402 85.75281123 112.42026104 82.3600769 129.1567688 C80.05893954 140.51047814 77.80974697 151.86711716 75.76171875 163.26953125 C75.58432159 164.25138397 75.40692444 165.23323669 75.22415161 166.24484253 C74.39095666 170.86426068 73.57115642 175.48531675 72.77539062 180.11132812 C70.37208834 193.74980914 67.55443535 208.44578181 56.078125 217.51953125 C38.44448128 228.49083965 15.69656173 225.82019316 -4 224 C-4 217.73 -4 211.46 -4 205 C-1.43347656 204.96261719 1.13304687 204.92523437 3.77734375 204.88671875 C6.28955135 204.84038012 8.80161719 204.78919162 11.3137207 204.73754883 C13.04670446 204.70449201 14.7797909 204.67640147 16.51293945 204.65356445 C19.0181821 204.61966108 21.5224998 204.56733272 24.02734375 204.51171875 C25.17166115 204.50213387 25.17166115 204.50213387 26.33909607 204.49235535 C32.89802455 204.31693234 39.55744807 203.32885368 44.43359375 198.6796875 C49.73789714 189.60549267 51.09152076 178.21036395 53 168 C45.74 168 38.48 168 31 168 C29.58481984 163.04686943 28.42097244 158.30627696 27.5546875 153.26171875 C27.42401886 152.52081497 27.29335022 151.77991119 27.15872192 151.01655579 C26.87618114 149.41420444 26.59513224 147.81158945 26.31542969 146.20874023 C25.5503276 141.82891249 24.77196231 137.45145485 23.9921875 133.07421875 C23.82982605 132.16259979 23.6674646 131.25098083 23.50018311 130.31173706 C21.74909312 120.52534287 19.87818874 110.76264605 18 101 C15.08855664 85.84554612 12.2904443 70.67479324 9.58959961 55.48144531 C8.09085133 47.0550978 6.57055991 38.63349287 5.0078125 30.21875 C4.76222343 28.89493317 4.76222343 28.89493317 4.51167297 27.54437256 C3.72227138 23.29223948 2.92958998 19.04075021 2.13256836 14.79003906 C1.85000948 13.27150078 1.56753412 11.75294695 1.28515625 10.234375 C1.15428619 9.54259155 1.02341614 8.85080811 0.88858032 8.13806152 C0.37603329 5.37054411 0 2.82282961 0 0 Z " fill="#FCFCFC" transform="translate(1282,800)"/>
<path d="M0 0 C0.96760254 0.00757324 1.93520508 0.01514648 2.93212891 0.02294922 C12.90833374 0.25246056 21.64734304 2.20368574 29.50390625 8.671875 C38.14406576 17.73301676 38.48044327 28.63610272 38.41455078 40.45092773 C38.41398602 41.87066134 38.41430449 43.29039552 38.41543579 44.71012878 C38.41600778 48.54848651 38.40427853 52.38671831 38.39028788 56.22504687 C38.37775474 60.24223355 38.37660798 64.25942337 38.37423706 68.27662659 C38.36802987 75.87668778 38.35162938 83.47669118 38.33153808 91.07672697 C38.30915536 99.73209738 38.29817969 108.38747061 38.28814721 117.04286277 C38.26726246 134.84110881 38.23169673 152.63929763 38.1875 170.4375 C30.9275 170.4375 23.6675 170.4375 16.1875 170.4375 C16.18203156 167.80779739 16.18203156 167.80779739 16.17645264 165.12496948 C16.1395351 148.61520775 16.08203515 132.10563915 16.00359726 115.59602165 C15.96379855 107.10795655 15.93141031 98.61998427 15.91650391 90.13183594 C15.90349167 82.73301012 15.87653807 75.33438848 15.83288693 67.93567765 C15.81026231 64.01855999 15.79458991 60.10169425 15.79561615 56.18450546 C15.79636219 52.49568644 15.77843481 48.80742449 15.74633217 45.11874962 C15.73378339 43.12322733 15.74090161 41.12761156 15.74864197 39.13206482 C15.68797629 30.47416145 15.68797629 30.47416145 11.1875 23.4375 C6.19583514 20.07662338 0.1378771 19.98769735 -5.6875 20.125 C-6.87158447 20.14191895 -6.87158447 20.14191895 -8.07958984 20.15917969 C-20.23085281 20.44415068 -29.77610771 23.06230715 -38.8125 31.4375 C-40.11498834 34.04247668 -39.95204509 35.96068916 -39.97071838 38.87905884 C-39.98540161 40.61229149 -39.98540161 40.61229149 -40.00038147 42.38053894 C-40.00613693 43.65439957 -40.0118924 44.92826019 -40.01782227 46.24072266 C-40.02739869 47.59075726 -40.03740863 48.94078885 -40.04782104 50.29081726 C-40.07490179 53.9620501 -40.09589415 57.63329584 -40.11582303 61.30457354 C-40.13766307 65.13897596 -40.16506144 68.97333848 -40.19187927 72.80770874 C-40.24183301 80.07143522 -40.28676187 87.33518381 -40.32990164 94.5989536 C-40.37925112 102.86730911 -40.43417772 111.13562459 -40.48958123 119.40394139 C-40.60344243 136.41509085 -40.7100746 153.42627798 -40.8125 170.4375 C-48.4025 170.4375 -55.9925 170.4375 -63.8125 170.4375 C-63.8125 114.9975 -63.8125 59.5575 -63.8125 2.4375 C-56.5525 2.4375 -49.2925 2.4375 -41.8125 2.4375 C-41.8125 7.7175 -41.8125 12.9975 -41.8125 18.4375 C-35.75848697 17.68185569 -35.75848697 17.68185569 -32.5 13.75 C-23.99789611 3.32324402 -13.10560509 -0.14361682 0 0 Z " fill="#FAFAFA" transform="translate(1071.8125,797.5625)"/>
<path d="M0 0 C10.20776823 9.76475478 16.22589406 21.22085948 16.77905273 35.35375977 C16.89380619 45.29040415 16.04751158 53.41712181 11.1875 62.25 C10.51847656 63.47009766 10.51847656 63.47009766 9.8359375 64.71484375 C8.41615014 67.03488735 6.88915343 69.1288145 5.1875 71.25 C4.58679688 71.99894531 3.98609375 72.74789062 3.3671875 73.51953125 C-3.96716329 81.70444363 -15.75948068 88.66984172 -26.89257812 89.38330078 C-43.86871969 90.12695816 -55.05161903 86.84591598 -69 77 C-78.47147965 67.73899767 -84.82025168 55.09892 -85.15625 41.82348633 C-85.33407094 25.04580271 -81.48286464 13.9482342 -70.01171875 1.2578125 C-50.59218449 -17.45480081 -20.30736753 -17.03753716 0 0 Z " fill="#FCFCFC" transform="translate(946.8125,351.75)"/>
<path d="M0 0 C65.15450644 0 65.15450644 0 77 10 C85.53976657 19.20892738 86.41564437 28.60351747 86.1796875 40.7421875 C85.68229566 49.76011787 82.39448293 57.58871216 75.95703125 64.05078125 C70.86293189 68.26130232 63.86082804 73 57 73 C60.77313598 80.91778417 65.11320435 88.4212391 69.625 95.9375 C70.68993778 97.72253827 71.75326818 99.50852716 72.81646729 101.29460144 C73.52523243 102.48524453 74.23433688 103.67568572 74.94378662 104.86592102 C78.15313766 110.25089129 81.34084206 115.6479392 84.5 121.0625 C84.96229004 121.84681396 85.42458008 122.63112793 85.90087891 123.43920898 C89 128.76774449 89 128.76774449 89 131 C83.31760691 131.88073831 77.61166187 132.62827526 72 131 C68.23176968 127.54674334 66.43471996 123.31586266 64.33642578 118.74560547 C61.8161093 113.56776858 58.83537699 108.63394355 55.94314575 103.65734863 C54.56665727 101.27994565 53.20709463 98.89330744 51.85624695 96.50125122 C50.87211422 94.77815732 49.85551094 93.07374313 48.83886719 91.36962891 C47 88 47 88 45.79394531 84.50146484 C44.47850779 80.57679496 44.47850779 80.57679496 40 76 C32.08 75.67 24.16 75.34 16 75 C16 93.48 16 111.96 16 131 C10.72 131 5.44 131 0 131 C0 87.77 0 44.54 0 0 Z " fill="#FAFAFA" transform="translate(611,1092)"/>
<path d="M0 0 C0.99837891 -0.00386719 1.99675781 -0.00773438 3.02539062 -0.01171875 C4.00572266 -0.01042969 4.98605469 -0.00914062 5.99609375 -0.0078125 C7.31178345 -0.00612061 7.31178345 -0.00612061 8.65405273 -0.00439453 C12.30602595 0.15807888 15.9351433 0.67158041 19.5625 1.125 C19.5625 7.395 19.5625 13.665 19.5625 20.125 C16.31019531 20.18107422 16.31019531 20.18107422 12.9921875 20.23828125 C10.87717985 20.28457911 8.7623434 20.33578236 6.64746094 20.38745117 C5.18500292 20.42057135 3.72242105 20.44864305 2.25976562 20.47143555 C0.14920597 20.50522175 -1.96023186 20.5575438 -4.0703125 20.61328125 C-5.97127686 20.65255737 -5.97127686 20.65255737 -7.91064453 20.69262695 C-12.89210607 21.30332669 -16.19881699 22.90710026 -19.765625 26.4140625 C-22.90965784 31.67690009 -22.12111725 38.58448427 -22.1875 44.5 C-22.27 48.99625 -22.3525 53.4925 -22.4375 58.125 C-10.2275 58.125 1.9825 58.125 14.5625 58.125 C14.5625 64.395 14.5625 70.665 14.5625 77.125 C2.3525 77.125 -9.8575 77.125 -22.4375 77.125 C-22.4375 126.295 -22.4375 175.465 -22.4375 226.125 C-29.6975 226.125 -36.9575 226.125 -44.4375 226.125 C-44.4375 176.955 -44.4375 127.785 -44.4375 77.125 C-49.7175 77.125 -54.9975 77.125 -60.4375 77.125 C-60.4375 70.855 -60.4375 64.585 -60.4375 58.125 C-55.1575 58.125 -49.8775 58.125 -44.4375 58.125 C-44.47230469 56.07539062 -44.50710938 54.02578125 -44.54296875 51.9140625 C-44.56385529 49.89503072 -44.58462518 47.87599609 -44.60229492 45.85693359 C-44.61723947 44.47014373 -44.63760278 43.08339993 -44.66381836 41.69677734 C-44.89378505 29.20642961 -43.69316122 18.95780404 -35.4375 9.125 C-26.1975302 0.0435591 -12.14587316 -0.04686511 0 0 Z " fill="#FCFDFD" transform="translate(1254.4375,741.875)"/>
<path d="M0 0 C5.94 0 11.88 0 18 0 C24.6149611 18.10789765 30.89431062 36.31407508 37.04201508 54.5842514 C38.96979235 60.31120223 40.90256346 66.03647172 42.83494186 71.76187134 C43.31346269 73.17976417 43.79187971 74.59769205 44.27019119 76.01565552 C47.25991179 84.87785716 50.27014547 93.73259948 53.3203125 102.57421875 C53.63371582 103.48372787 53.94711914 104.393237 54.27001953 105.33030701 C55.67237745 109.39769719 57.07973719 113.46324658 58.49511719 117.52612305 C58.97346537 118.91058992 59.45166661 120.29510758 59.9296875 121.6796875 C60.53659424 123.42354736 60.53659424 123.42354736 61.15576172 125.20263672 C62 128 62 128 62 131 C56.72 131 51.44 131 46 131 C43.11756103 123.83508027 40.5017943 116.71368979 38.3125 109.3125 C38.00953003 108.29941772 38.00953003 108.29941772 37.70043945 107.26586914 C36.13332336 101.85426867 35.11547972 96.57739861 34 91 C17.5 91 1 91 -16 91 C-16.99 94.96 -17.98 98.92 -19 103 C-19.77664827 105.49063066 -20.5840011 107.97214744 -21.4375 110.4375 C-23.76242103 117.25726835 -25.90821547 124.1048584 -28 131 C-33.28 131 -38.56 131 -44 131 C-42.5019538 123.46141276 -40.22449647 116.33695038 -37.73828125 109.0703125 C-37.10385101 107.19848045 -37.10385101 107.19848045 -36.456604 105.28883362 C-35.31676623 101.92700528 -34.17083828 98.56728406 -33.02342606 95.20803452 C-32.07080201 92.4168177 -31.1216314 89.62443133 -30.17233944 86.83207989 C-20.30762918 57.82034489 -10.20578464 28.89329981 0 0 Z " fill="#F9F9F9" transform="translate(1292,1092)"/>
<path d="M0 0 C0.74886475 0.00523682 1.49772949 0.01047363 2.26928711 0.01586914 C3.07817383 0.0190918 3.88706055 0.02231445 4.72045898 0.02563477 C5.5705957 0.03401367 6.42073242 0.04239258 7.29663086 0.05102539 C8.15063477 0.05553711 9.00463867 0.06004883 9.88452148 0.06469727 C12.00108749 0.07652166 14.11761771 0.0944577 16.23413086 0.11352539 C16.5633403 1.08569252 16.5633403 1.08569252 16.89920044 2.07749939 C30.34579291 41.79435205 30.34579291 41.79435205 43.85913086 81.48852539 C44.27708923 82.71309448 44.27708923 82.71309448 44.70349121 83.96240234 C47.55411915 92.3123719 50.4177718 100.65755567 53.31225586 108.99243164 C53.67346024 110.03391357 53.67346024 110.03391357 54.04196167 111.09643555 C55.15489711 114.30522941 56.27078743 117.51287495 57.39282227 120.71850586 C57.77100098 121.80663574 58.14917969 122.89476562 58.53881836 124.01586914 C58.86865723 124.95938232 59.19849609 125.90289551 59.53833008 126.875 C60.23413086 129.11352539 60.23413086 129.11352539 60.23413086 131.11352539 C54.62413086 131.11352539 49.01413086 131.11352539 43.23413086 131.11352539 C41.52149324 125.73951753 39.81259077 120.36434203 38.10717773 114.98803711 C37.52617924 113.15828178 36.94415148 111.32885294 36.36108398 109.49975586 C35.52440549 106.87446364 34.69140475 104.24802927 33.85913086 101.62133789 C33.59664551 100.80045685 33.33416016 99.97957581 33.0637207 99.13381958 C31.23413086 93.3412688 31.23413086 93.3412688 31.23413086 91.11352539 C15.06413086 91.44352539 -1.10586914 91.77352539 -17.76586914 92.11352539 C-21.71276678 104.59701936 -21.71276678 104.59701936 -25.62915039 117.09008789 C-25.87600586 117.88157227 -26.12286133 118.67305664 -26.37719727 119.48852539 C-26.86634656 121.05816325 -27.35314217 122.6285357 -27.83813477 124.19946289 C-29.65364196 130.00129821 -29.65364196 130.00129821 -30.76586914 131.11352539 C-33.46241768 131.1867216 -36.13278372 131.20595076 -38.82836914 131.17602539 C-39.58698242 131.17151367 -40.3455957 131.16700195 -41.12719727 131.16235352 C-43.00678785 131.15053219 -44.88633813 131.13259617 -46.76586914 131.11352539 C-40.05231697 110.01243423 -33.06655065 89.02684857 -25.71826172 68.13818359 C-22.11214812 57.87887889 -18.55689661 47.60430385 -15.06665039 37.30493164 C-14.67562637 36.15118546 -14.28460236 34.99743927 -13.88172913 33.80873108 C-11.96173842 28.13891621 -10.04682435 22.46742129 -8.13623047 16.79443359 C-7.4425073 14.74192879 -6.74874316 12.68943783 -6.05493164 10.63696289 C-5.73587357 9.68499527 -5.41681549 8.73302765 -5.08808899 7.75221252 C-4.79564804 6.88837448 -4.50320709 6.02453644 -4.2019043 5.13452148 C-3.94736481 4.37819427 -3.69282532 3.62186707 -3.43057251 2.84262085 C-2.39704545 0.15410288 -2.39704545 0.15410288 0 0 Z " fill="#F9F9F9" transform="translate(956.765869140625,1091.886474609375)"/>
<path d="M0 0 C5.94 0 11.88 0 18 0 C27.74745005 27.67850692 37.25237 55.43438656 46.62538338 83.24149036 C47.5383827 85.94989928 48.45191701 88.65812753 49.3656044 91.3663044 C49.8067169 92.6741368 50.24758448 93.98205184 50.68819809 95.29005241 C53.72174426 104.29331151 56.8073225 113.27594671 60.04602051 122.20774841 C61.13894555 125.26667915 62 127.72492437 62 131 C56.72 131 51.44 131 46 131 C44.98820839 128.33739049 43.9901696 125.67069648 43 123 C42.62488281 121.99324219 42.24976563 120.98648437 41.86328125 119.94921875 C38.4783188 110.69129305 35.79791492 101.51291074 33 92 C8.745 91.505 8.745 91.505 -16 91 C-16.99 94.63 -17.98 98.26 -19 102 C-19.79600181 104.63004988 -20.60703396 107.25562843 -21.4375 109.875 C-21.86744356 111.23689836 -22.29712674 112.59887894 -22.7265625 113.9609375 C-22.93829102 114.63092773 -23.15001953 115.30091797 -23.36816406 115.99121094 C-24.93912566 120.9857519 -26.46423901 125.99455677 -28 131 C-33.28 131 -38.56 131 -44 131 C-42.37693631 122.5666054 -39.62641441 114.5572113 -36.86328125 106.4453125 C-36.34564632 104.91480031 -35.82838169 103.38416285 -35.3114624 101.85340881 C-33.93472935 97.78085989 -32.55191567 93.71040148 -31.16756058 89.64043808 C-30.0261252 86.28253563 -28.88804989 82.92349809 -27.74981594 79.56450939 C-21.25921481 60.41407897 -14.7282145 41.27779504 -8.0625 22.1875 C-7.75639801 21.31071594 -7.45029602 20.43393188 -7.13491821 19.53057861 C-6.29118246 17.11732779 -5.44520861 14.70488151 -4.59765625 12.29296875 C-4.35924011 11.61315445 -4.12082397 10.93334015 -3.87518311 10.23292542 C-2.657748 6.78362793 -1.35961621 3.39904051 0 0 Z " fill="#F9F9F9" transform="translate(751,1092)"/>
<path d="M0 0 C5.61 0 11.22 0 17 0 C17.77601562 1.381875 18.55203125 2.76375 19.3515625 4.1875 C25.12029434 14.43870461 30.93481909 24.65954483 36.875 34.8125 C50.6283623 58.32084032 64.29590614 81.844786 76.9058075 105.99006653 C77.29839091 106.74173505 77.69097433 107.49340357 78.09545422 108.26784992 C78.54320438 109.12526421 78.54320438 109.12526421 79 110 C78.8934182 108.10058403 78.8934182 108.10058403 78.78468323 106.16279602 C78.09489141 93.25750386 77.865306 80.40207706 77.90234375 67.48046875 C77.9042161 65.51508114 77.90563612 63.54969306 77.90663147 61.58430481 C77.91039243 56.48986449 77.92016522 51.39545413 77.93133545 46.30102539 C77.94169026 41.07113042 77.94615877 35.84123046 77.95117188 30.61132812 C77.96179544 20.40753915 77.97879134 10.20377209 78 0 C82.95 0 87.9 0 93 0 C93 43.23 93 86.46 93 131 C87.39 131 81.78 131 76 131 C75.07960938 129.4015625 74.15921875 127.803125 73.2109375 126.15625 C66.83402837 115.08843757 60.44519086 104.02825241 54 93 C27.06878664 46.90007695 27.06878664 46.90007695 15.88456726 25.59068298 C15.53127192 24.91759063 15.17797659 24.24449827 14.81397533 23.55100918 C14.54536347 23.03917615 14.27675161 22.52734312 14 22 C14.07105453 23.26881516 14.14210907 24.53763031 14.21531677 25.84489441 C14.90013645 38.67479157 15.13492146 51.45469036 15.09765625 64.30078125 C15.09578379 66.24374861 15.09436382 68.18671644 15.09336853 70.12968445 C15.08960836 75.16494118 15.07983632 80.20016759 15.06866455 85.2354126 C15.05830798 90.40498444 15.05384087 95.57456133 15.04882812 100.74414062 C15.03820596 110.82944018 15.02121111 120.91471754 15 131 C10.05 131 5.1 131 0 131 C0 87.77 0 44.54 0 0 Z " fill="#FAFAFA" transform="translate(1036,1092)"/>
<path d="M0 0 C3.85190261 3.00448404 6.42463764 6.16972326 7.40939331 11.01385498 C7.95812072 16.63037441 8.146196 22.18614714 8.1328125 27.828125 C8.13376923 28.73898865 8.13472595 29.64985229 8.13571167 30.58831787 C8.13638799 32.50435455 8.13457221 34.42039359 8.13037109 36.33642578 C8.12504011 39.2282441 8.13032202 42.11990535 8.13671875 45.01171875 C8.14979837 75.02429034 8.14979837 75.02429034 2.4375 83.25 C-6.37045196 89.57365782 -18.6250314 89.03679315 -29 88 C-34.18139314 86.86217341 -37.70235029 85.26520846 -41.5 81.5625 C-47.96503544 70.51806445 -46.18645904 56.12531554 -46.18530273 43.69848633 C-46.18749349 41.07031136 -46.20573391 38.44255459 -46.22460938 35.81445312 C-46.31660795 9.35279888 -46.31660795 9.35279888 -41.1875 2.75 C-31.4763265 -6.60846744 -11.56602252 -4.61176847 0 0 Z " fill="#212224" transform="translate(940,820)"/>
<path d="M0 0 C7.26 0 14.52 0 22 0 C22 55.11 22 110.22 22 167 C14.74 167 7.48 167 0 167 C0 111.89 0 56.78 0 0 Z " fill="#FEFEFE" transform="translate(1146,800)"/>
<path d="M0 0 C7.26 0 14.52 0 22 0 C22 55.11 22 110.22 22 167 C14.74 167 7.48 167 0 167 C0 111.89 0 56.78 0 0 Z " fill="#FEFEFE" transform="translate(611,800)"/>
<path d="M0 0 C5.28 0 10.56 0 16 0 C16.11639588 12.89233538 16.20496867 25.78454357 16.25906086 38.6772995 C16.28503639 44.66542767 16.32021248 50.65319354 16.37719727 56.64111328 C16.43194883 62.43130501 16.46151085 68.22115058 16.47438622 74.01158142 C16.48354918 76.20895325 16.50143994 78.40630843 16.52865028 80.60353088 C16.70243364 95.23241877 16.86211986 111.56640007 6.73828125 123.390625 C-2.32108133 131.77816968 -11.76890103 134.36101482 -23.91015625 134.2109375 C-36.11722374 133.37758523 -44.58159734 127.06843158 -52.46875 118.1484375 C-53.97879594 116.02975059 -54.58568973 114.54340474 -55 112 C-53.57140593 110.96674014 -52.13177617 109.94872366 -50.6875 108.9375 C-49.88699219 108.36902344 -49.08648438 107.80054688 -48.26171875 107.21484375 C-47.51535156 106.81394531 -46.76898437 106.41304687 -46 106 C-43 107 -43 107 -40.9375 110.25 C-37.63412552 115.01826375 -33.47944144 117.28006421 -28 119 C-20.56830547 120.10314216 -13.20379847 119.54184019 -7 115 C-0.74481171 107.94978778 -0.85065564 100.02307531 -0.79467773 91.04736328 C-0.78477814 90.0613765 -0.77487854 89.07538971 -0.76467896 88.05952454 C-0.73318982 84.81314463 -0.7083564 81.5667501 -0.68359375 78.3203125 C-0.66301335 76.06443917 -0.6420166 73.8085696 -0.62062073 71.55270386 C-0.56551223 65.62458347 -0.51605355 59.69642892 -0.46777344 53.76824951 C-0.41747637 47.71526054 -0.36183318 41.66232097 -0.30664062 35.609375 C-0.19919634 23.73962557 -0.09772101 11.86983318 0 0 Z " fill="#FAFAFA" transform="translate(876,1092)"/>
<path d="M0 0 C5.28 -0.04125 10.56 -0.0825 16 -0.125 C18.475 -0.15231201 18.475 -0.15231201 21 -0.18017578 C22.33333004 -0.18602649 23.66666371 -0.19112067 25 -0.1953125 C26.00740234 -0.2106604 26.00740234 -0.2106604 27.03515625 -0.22631836 C35.4391133 -0.22935447 42.33400923 1.88940708 49 7 C53.67366019 11.67366019 55.05248282 16.88587569 55.3125 23.375 C55.10069982 31.14541892 52.66960017 37.57690418 47 43 C39.8053927 47.82692744 33.91910601 49.16189829 25.29296875 49.09765625 C24.3274408 49.09614563 24.3274408 49.09614563 23.34240723 49.09460449 C20.95741981 49.08940599 18.57245795 49.07544492 16.1875 49.0625 C10.845625 49.041875 5.50375 49.02125 0 49 C0 32.83 0 16.66 0 0 Z " fill="#202123" transform="translate(627,1105)"/>
<path d="M0 0 C0.53882813 0.391875 1.07765625 0.78375 1.6328125 1.1875 C2.6846875 1.909375 3.7365625 2.63125 4.8203125 3.375 C8.36204771 6.91673521 10.43297812 10.72648128 12.6328125 15.1875 C13.1278125 16.1775 13.1278125 16.1775 13.6328125 17.1875 C14.47263084 26.65954953 13.7569381 34.70450352 7.9375 42.44140625 C1.73068206 49.26388022 -5.19349035 52.29131514 -14.3671875 52.75 C-21.89535389 52.47871472 -27.43801325 49.59593216 -33.1796875 44.875 C-40.42492152 35.97371248 -42.43142099 28.74557065 -41.3671875 17.1875 C-38.80570816 8.30610902 -32.89253108 3.05047247 -25.3046875 -1.75 C-17.63456744 -4.57769403 -6.99628728 -4.36132194 0 0 Z " fill="#212224" transform="translate(926.3671875,365.8125)"/>
<path d="M0 0 C5.28 0 10.56 0 16 0 C16 43.23 16 86.46 16 131 C10.72 131 5.44 131 0 131 C0 87.77 0 44.54 0 0 Z " fill="#F8F8F8" transform="translate(1373,1092)"/>
<path d="M0 0 C0.77424316 0.11762695 1.54848633 0.23525391 2.34619141 0.35644531 C6.59220581 1.09578694 9.91611554 2.08369292 13.375 4.6875 C15.72193138 8.20789707 15.70223764 9.88807009 15.75 14.0625 C15.77835938 15.18398438 15.80671875 16.30546875 15.8359375 17.4609375 C15.27368449 21.39670854 14.20911091 22.93546726 11.375 25.6875 C4.52680487 29.46122179 -2.92694063 30.47562681 -10.625 30.6875 C-11.77548828 30.72617187 -11.77548828 30.72617187 -12.94921875 30.765625 C-41.1718531 31.6195625 -41.1718531 31.6195625 -49.625 23.6875 C-52.65446219 19.17553504 -52.34339117 13.90528853 -51.625 8.6875 C-49.84017445 4.55334594 -46.70722028 2.50634182 -42.625 0.875 C-29.38969326 -3.52787422 -13.57333211 -2.11134752 0 0 Z " fill="#232426" transform="translate(941.625,967.3125)"/>
<path d="M0 0 C0.66 0 1.32 0 2 0 C2.23074219 0.81339844 2.46148438 1.62679688 2.69921875 2.46484375 C3.60003442 5.63016046 4.5058399 8.79397557 5.41455078 11.95703125 C5.95568097 13.84534543 6.49173944 15.73511102 7.02734375 17.625 C9.07824751 24.74842375 11.25053134 31.82132564 13.54296875 38.87109375 C13.76903809 39.56700119 13.99510742 40.26290863 14.22802734 40.97990417 C15.37755761 44.51426833 16.53351012 48.04638335 17.69775391 51.57592773 C18.12802724 52.89173243 18.55820707 54.2075677 18.98828125 55.5234375 C19.56896362 57.2856665 19.56896362 57.2856665 20.16137695 59.08349609 C21 62 21 62 21 65 C7.8 65 -5.4 65 -19 65 C-18.24838441 59.73869085 -17.41408237 55.81159202 -15.70703125 50.90625 C-15.23918015 49.54248154 -14.77157922 48.17862725 -14.30419922 46.81469727 C-14.060224 46.10967072 -13.81624878 45.40464417 -13.56488037 44.67825317 C-8.9087072 31.19793873 -4.78133963 17.70233091 -1.48974609 3.81469727 C-1 2 -1 2 0 0 Z " fill="#232426" transform="translate(1300,1105)"/>
<path d="M0 0 C2 1 2 1 3.03198242 3.99243164 C3.41754229 5.35891237 3.79555499 6.72753436 4.16796875 8.09765625 C4.60921136 9.65826864 5.05252308 11.21829702 5.49755859 12.77783203 C5.73746521 13.62081848 5.97737183 14.46380493 6.22454834 15.33233643 C7.59715089 20.05428365 9.07695764 24.74245054 10.55078125 29.43359375 C10.85724579 30.41276764 11.16371033 31.39194153 11.47946167 32.40078735 C12.74816591 36.45362128 14.01952192 40.50561528 15.29321289 44.55688477 C16.23568585 47.55669285 17.17471094 50.55756274 18.11328125 53.55859375 C18.40382889 54.47926132 18.69437653 55.39992889 18.99372864 56.34849548 C19.25788071 57.1944075 19.52203278 58.04031952 19.79418945 58.91186523 C20.02781693 59.6555687 20.2614444 60.39927216 20.50215149 61.16551208 C21 63 21 63 21 65 C7.8 65 -5.4 65 -19 65 C-18.30744921 60.15214448 -17.70286709 56.6418417 -16.14453125 52.18359375 C-15.77215332 51.09997559 -15.39977539 50.01635742 -15.01611328 48.89990234 C-14.6189209 47.75730957 -14.22172852 46.6147168 -13.8125 45.4375 C-10.51697345 35.78172522 -7.50890179 26.11824282 -4.94067383 16.24389648 C-3.50855904 10.74562739 -1.86654357 5.36691878 0 0 Z " fill="#232426" transform="translate(759,1105)"/>
<path d="M0 0 C2.67714315 2.67714315 3.2063898 5.63422422 4.1875 9.1875 C4.62776983 10.7307934 5.06924239 12.27374403 5.51171875 13.81640625 C5.74938965 14.64930176 5.98706055 15.48219727 6.23193359 16.34033203 C7.6108028 21.11509401 9.0541371 25.87016987 10.5 30.625 C10.7976123 31.60500977 11.09522461 32.58501953 11.40185547 33.59472656 C13.46712612 40.35523444 15.64613423 47.06578733 17.95703125 53.74609375 C19.1431675 57.44666115 20.05750274 61.23001098 21 65 C7.47 65 -6.06 65 -20 65 C-16.63653846 52.66730769 -16.63653846 52.66730769 -15.16796875 48.44921875 C-14.84723389 47.51400391 -14.52649902 46.57878906 -14.19604492 45.61523438 C-13.8632251 44.64908203 -13.53040527 43.68292969 -13.1875 42.6875 C-10.11294059 33.64058587 -7.38391581 24.55792849 -4.9909668 15.30737305 C-3.62151437 10.05471314 -1.99349382 5.05096381 0 0 Z " fill="#232426" transform="translate(963,1105)"/>
<path d="M0 0 C31.35 0 62.7 0 95 0 C95 3.3 95 6.6 95 10 C63.65 10 32.3 10 0 10 C0 6.7 0 3.4 0 0 Z " fill="#FEFEFE" transform="translate(1149,1238)"/>
<path d="M0 0 C7.26 0 14.52 0 22 0 C22 8.25 22 16.5 22 25 C14.74 25 7.48 25 0 25 C0 16.75 0 8.5 0 0 Z " fill="#FDFDFD" transform="translate(1146,744)"/>
<path d="M0 0 C7.26 0 14.52 0 22 0 C22 8.25 22 16.5 22 25 C14.74 25 7.48 25 0 25 C0 16.75 0 8.5 0 0 Z " fill="#FBFBFB" transform="translate(611,744)"/>
</svg>
